<svg xmlns="http://www.w3.org/2000/svg" xmlns:xlink="http://www.w3.org/1999/xlink" contentStyleType="text/css" height="4112.5px" preserveAspectRatio="none" style="width:2965px;height:4112px;background:#FFFFFF;" version="1.1" viewBox="0 0 2965 4112" width="2965.625px" zoomAndPan="magnify"><title>Fig. 3 &#8212; &#46356;&#53076;&#45908; (220) &#48143; &#47532;&#51320;&#48260; (250) &#51032; &#46041;&#51089; &#55120;&#47492;</title><defs/><g><text fill="#000000" font-family="sans-serif" font-size="43.75" font-weight="bold" lengthAdjust="spacing" textLength="1064.9498" x="947.057" y="115.6097">Fig. 3 &#8212; &#46356;&#53076;&#45908; (220) &#48143; &#47532;&#51320;&#48260; (250) &#51032; &#46041;&#51089; &#55120;&#47492;</text><ellipse cx="1512.3444" cy="204.0527" fill="#000000" rx="31.25" ry="31.25" style="stroke:#222222;stroke-width:3.125;"/><rect fill="#FFFFFF" height="262.1094" style="stroke:#000000;stroke-width:1.5625;" width="953.1392" x="1035.7748" y="297.8027"/><text fill="#000000" font-family="sans-serif" font-size="37.5" font-weight="bold" lengthAdjust="spacing" textLength="105.2856" x="1079.5248" y="376.3611">S200</text><text fill="#000000" font-family="sans-serif" font-size="37.5" lengthAdjust="spacing" textLength="748.4334" x="1196.7306" y="376.3611">&#8212; &#54168;&#51060;&#47196;&#46300; &#51077;&#47141; (QR &#49828;&#52880;&#45320; &#51064;&#53552;&#54168;&#51060;&#49828; 210)</text><text fill="#000000" font-family="sans-serif" font-size="37.5" lengthAdjust="spacing" textLength="596.2018" x="1079.5248" y="420.0134">payload (&#45800;&#51068; &#54168;&#51060;&#47196;&#46300; &#47928;&#51088;&#50676;, 10)</text><text fill="#000000" font-family="sans-serif" font-size="37.5" lengthAdjust="spacing" textLength="723.1059" x="1079.5248" y="463.6658">access_level &#8712; {&#51228;1, &#51228;2, &#51228;3 &#52636;&#47141; &#49688;&#51456;}</text><text fill="#000000" font-family="sans-serif" font-size="37.5" lengthAdjust="spacing" textLength="308.7405" x="1079.5248" y="507.3181">public_key (&#49440;&#53469;)</text><rect fill="none" height="1092.4805" style="stroke:#000000;stroke-width:4.6875;" width="2314.9978" x="385.0061" y="591.1621"/><path d="M657.5133,591.1621 L657.5133,637.9395 L626.2633,669.1895 L385.0061,669.1895 " fill="none" style="stroke:#000000;stroke-width:4.6875;"/><text fill="#000000" font-family="sans-serif" font-size="37.5" lengthAdjust="spacing" textLength="216.2571" x="406.8811" y="641.5955">&#46356;&#53076;&#45908; (220)</text><polygon fill="#FFFFFF" points="1281.1611,722.3145,1743.5277,722.3145,1781.0277,778.4668,1743.5277,834.6191,1281.1611,834.6191,1243.6611,778.4668,1281.1611,722.3145" style="stroke:#000000;stroke-width:1.5625;"/><text fill="#000000" font-family="sans-serif" font-size="37.5" font-weight="bold" lengthAdjust="spacing" textLength="105.2856" x="1293.6611" y="769.6228">S201</text><text fill="#000000" font-family="sans-serif" font-size="37.5" lengthAdjust="spacing" textLength="291.2388" x="1410.8669" y="769.6228">&#8212; &#44396;&#54925;&#51088; (12) &#44032;</text><text fill="#000000" font-family="sans-serif" font-size="37.5" lengthAdjust="spacing" textLength="437.3666" x="1293.6611" y="813.2751">payload &#45236;&#50640; &#51316;&#51116;&#54616;&#45716;&#44032;?</text><text fill="#000000" font-family="sans-serif" font-size="37.5" lengthAdjust="spacing" textLength="46.7102" x="1184.4509" y="757.1228">no</text><text fill="#000000" font-family="sans-serif" font-size="37.5" lengthAdjust="spacing" textLength="64.801" x="1793.5277" y="757.1228">yes</text><path d="M1321.4502,881.4941 L1321.4502,940.7715 L1258.9502,953.2715 L1321.4502,965.7715 L1321.4502,1025.0488 A0,0 0 0 0 1321.4502,1025.0488 L1642.9172,1025.0488 A0,0 0 0 0 1642.9172,1025.0488 L1642.9172,912.7441 L1611.6672,881.4941 L1321.4502,881.4941 A0,0 0 0 0 1321.4502,881.4941 " fill="#FFFFFF" style="stroke:#000000;stroke-width:1.5625;"/><path d="M1611.6672,881.4941 L1611.6672,912.7441 L1642.9172,912.7441 L1611.6672,881.4941 " fill="#FFFFFF" style="stroke:#000000;stroke-width:1.5625;"/><text fill="#000000" font-family="sans-serif" font-size="37.5" lengthAdjust="spacing" textLength="230.8419" x="1352.7002" y="944.4275">&#45800;&#49692; &#47784;&#46300; &#52376;&#47532;</text><text fill="#000000" font-family="sans-serif" font-size="37.5" lengthAdjust="spacing" textLength="168.5399" x="1352.7002" y="988.0798">(&#52397;&#44396;&#54637; 5)</text><rect fill="#FFFFFF" height="174.8047" style="stroke:#000000;stroke-width:1.5625;" width="811.4441" x="447.5061" y="865.8691"/><text fill="#000000" font-family="sans-serif" font-size="37.5" lengthAdjust="spacing" textLength="116.1438" x="491.2561" y="944.4275">return</text><text fill="#000000" font-family="sans-serif" font-size="37.5" lengthAdjust="spacing" textLength="723.9441" x="491.2561" y="988.0798">(payload as Layer A, empty Layer B/C)</text><rect fill="#FFFFFF" height="174.8047" style="stroke:#000000;stroke-width:1.5625;" width="723.6816" x="1809.6197" y="865.8691"/><text fill="#000000" font-family="sans-serif" font-size="37.5" font-weight="bold" lengthAdjust="spacing" textLength="105.2856" x="1853.3697" y="944.4275">S202</text><text fill="#000000" font-family="sans-serif" font-size="37.5" lengthAdjust="spacing" textLength="518.9758" x="1970.5755" y="944.4275">&#8212; split(DELIMITER, max=1)</text><text fill="#000000" font-family="sans-serif" font-size="37.5" lengthAdjust="spacing" textLength="525.1043" x="1853.3697" y="988.0798">&#8594; Layer A (11), &#53944;&#47112;&#51068;&#47084; (13)</text><rect fill="#FFFFFF" height="436.7188" style="stroke:#000000;stroke-width:1.5625;" width="932.0868" x="1705.4172" y="1103.1738"/><text fill="#000000" font-family="sans-serif" font-size="37.5" font-weight="bold" lengthAdjust="spacing" textLength="105.2856" x="1749.1672" y="1181.7322">S203</text><text fill="#000000" font-family="sans-serif" font-size="37.5" lengthAdjust="spacing" textLength="508.0246" x="1866.373" y="1181.7322">&#8212; &#53944;&#47112;&#51068;&#47084; &#46356;&#53076;&#46377; + &#54756;&#45908; &#54028;&#49905;</text><text fill="#000000" font-family="sans-serif" font-size="37.5" lengthAdjust="spacing" textLength="666.0095" x="1749.1672" y="1225.3845">frame = base64.b64decode(trailer)</text><text fill="#000000" font-family="sans-serif" font-size="37.5" lengthAdjust="spacing" textLength="454.0649" x="1749.1672" y="1269.0369">(version, b_len, c_len) =</text><text fill="#000000" font-family="sans-serif" font-size="37.5" lengthAdjust="spacing" textLength="820.7464" x="1773.0075" y="1312.6892">unpack("&gt;BHH", frame[:5])  &#8592; &#51060;&#51652; &#54756;&#45908; (14)</text><text fill="#000000" font-family="sans-serif" font-size="37.5" lengthAdjust="spacing" textLength="346.2629" x="1749.1672" y="1356.3416">&#48260;&#51204;&#183;&#44600;&#51060; &#51221;&#54633;&#49457; &#44160;&#51613;</text><text fill="#000000" font-family="sans-serif" font-size="37.5" lengthAdjust="spacing" textLength="642.2424" x="1749.1672" y="1399.9939">Layer B (15) = frame[5 : 5+b_len]</text><text fill="#000000" font-family="sans-serif" font-size="37.5" lengthAdjust="spacing" textLength="592.2913" x="1749.1672" y="1443.6462">Layer C (16) = frame[5+b_len :</text><text fill="#000000" font-family="sans-serif" font-size="37.5" lengthAdjust="spacing" textLength="297.7661" x="1927.9696" y="1487.2986">5+b_len+c_len]</text><polygon fill="#FFFFFF" points="1512.3444,1571.1426,1549.8444,1608.6426,1512.3444,1646.1426,1474.8444,1608.6426,1512.3444,1571.1426" style="stroke:#000000;stroke-width:1.5625;"/><rect fill="none" height="1995.6543" style="stroke:#000000;stroke-width:4.6875;" width="2899.6887" x="34.375" y="1714.8926"/><path d="M306.8821,1714.8926 L306.8821,1761.6699 L275.6321,1792.9199 L34.375,1792.9199 " fill="none" style="stroke:#000000;stroke-width:4.6875;"/><text fill="#000000" font-family="sans-serif" font-size="37.5" lengthAdjust="spacing" textLength="216.2571" x="56.25" y="1765.3259">&#47532;&#51320;&#48260; (250)</text><rect fill="#FFFFFF" height="174.8047" style="stroke:#000000;stroke-width:1.5625;" width="741.9262" x="1141.3813" y="1846.0449"/><text fill="#000000" font-family="sans-serif" font-size="37.5" font-weight="bold" lengthAdjust="spacing" textLength="105.2856" x="1185.1313" y="1924.6033">S204</text><text fill="#000000" font-family="sans-serif" font-size="37.5" lengthAdjust="spacing" textLength="314.7624" x="1302.3371" y="1924.6033">&#8212; &#52636;&#47141; &#49688;&#51456; &#51221;&#44508;&#54868;</text><text fill="#000000" font-family="sans-serif" font-size="37.5" lengthAdjust="spacing" textLength="654.4262" x="1185.1313" y="1968.2556">(&#48120;&#51648;&#51032; access_level &#8594; &#51228;1 &#52636;&#47141; &#49688;&#51456;)</text><rect fill="#FFFFFF" height="174.8047" style="stroke:#000000;stroke-width:1.5625;" width="492.5842" x="1266.0522" y="2248.9258"/><text fill="#000000" font-family="sans-serif" font-size="37.5" font-weight="bold" lengthAdjust="spacing" textLength="105.2856" x="1309.8022" y="2327.4841">S207</text><text fill="#000000" font-family="sans-serif" font-size="37.5" lengthAdjust="spacing" textLength="287.8784" x="1427.0081" y="2327.4841">&#8212; safe-fallback</text><text fill="#000000" font-family="sans-serif" font-size="37.5" lengthAdjust="spacing" textLength="269.4676" x="1309.8022" y="2371.1365">Layer A &#47564; &#48152;&#54872;</text><polygon fill="#FFFFFF" points="1297.4638,2083.3496,1727.2249,2083.3496,1764.7249,2120.8496,1727.2249,2158.3496,1297.4638,2158.3496,1259.9638,2120.8496,1297.4638,2083.3496" style="stroke:#000000;stroke-width:1.5625;"/><text fill="#000000" font-family="sans-serif" font-size="37.5" lengthAdjust="spacing" textLength="46.7102" x="1537.3444" y="2205.658">no</text><text fill="#000000" font-family="sans-serif" font-size="37.5" font-weight="bold" lengthAdjust="spacing" textLength="105.2856" x="1309.9638" y="2133.8318">S205</text><text fill="#000000" font-family="sans-serif" font-size="37.5" lengthAdjust="spacing" textLength="287.5552" x="1427.1697" y="2133.8318">&#8212; decode &#49457;&#44277;?</text><text fill="#000000" font-family="sans-serif" font-size="37.5" lengthAdjust="spacing" textLength="64.801" x="1777.2249" y="2099.5056">yes</text><polygon fill="#FFFFFF" points="1301.1104,2554.9805,1723.5783,2554.9805,1761.0783,2592.4805,1723.5783,2629.9805,1301.1104,2629.9805,1263.6104,2592.4805,1301.1104,2554.9805" style="stroke:#000000;stroke-width:1.5625;"/><text fill="#000000" font-family="sans-serif" font-size="37.5" font-weight="bold" lengthAdjust="spacing" textLength="105.2856" x="1313.6104" y="2605.4626">S206</text><text fill="#000000" font-family="sans-serif" font-size="37.5" lengthAdjust="spacing" textLength="280.2621" x="1430.8162" y="2605.4626">&#8212; &#52636;&#47141; &#49688;&#51456; &#48516;&#44592;</text><rect fill="#FFFFFF" height="174.8047" style="stroke:#000000;stroke-width:1.5625;" width="384.2407" x="65.625" y="2826.6602"/><text fill="#000000" font-family="sans-serif" font-size="37.5" lengthAdjust="spacing" textLength="296.7407" x="109.375" y="2905.2185">return (Layer A,</text><text fill="#000000" font-family="sans-serif" font-size="37.5" lengthAdjust="spacing" textLength="196.4905" x="133.2153" y="2948.8708">vr=public)</text><ellipse cx="257.7454" cy="3145.2148" fill="none" rx="34.375" ry="34.375" style="stroke:#222222;stroke-width:3.125;"/><ellipse cx="257.7454" cy="3145.2148" fill="#222222" rx="18.75" ry="18.75" style="stroke:#222222;stroke-width:3.125;"/><rect fill="#FFFFFF" height="174.8047" style="stroke:#000000;stroke-width:1.5625;" width="550.2808" x="512.3657" y="2826.6602"/><text fill="#000000" font-family="sans-serif" font-size="37.5" lengthAdjust="spacing" textLength="462.7808" x="556.1157" y="2905.2185">return (Layer A, Layer B,</text><text fill="#000000" font-family="sans-serif" font-size="37.5" lengthAdjust="spacing" textLength="272.7905" x="579.9561" y="2948.8708">vr=unverified)</text><ellipse cx="787.5061" cy="3145.2148" fill="none" rx="34.375" ry="34.375" style="stroke:#222222;stroke-width:3.125;"/><ellipse cx="787.5061" cy="3145.2148" fill="#222222" rx="18.75" ry="18.75" style="stroke:#222222;stroke-width:3.125;"/><polygon fill="#FFFFFF" points="1738.1674,2826.6602,2062.5513,2826.6602,2100.0513,2864.1602,2062.5513,2901.6602,1738.1674,2901.6602,1700.6674,2864.1602,1738.1674,2826.6602" style="stroke:#000000;stroke-width:1.5625;"/><text fill="#000000" font-family="sans-serif" font-size="37.5" lengthAdjust="spacing" textLength="299.3838" x="1750.6674" y="2877.1423">public_key &#51316;&#51116;?</text><text fill="#000000" font-family="sans-serif" font-size="37.5" lengthAdjust="spacing" textLength="46.7102" x="1641.4572" y="2842.8162">no</text><text fill="#000000" font-family="sans-serif" font-size="37.5" lengthAdjust="spacing" textLength="64.801" x="2112.5513" y="2842.8162">yes</text><rect fill="#FFFFFF" height="131.1523" style="stroke:#000000;stroke-width:1.5625;" width="492.5842" x="1197.8699" y="2932.9102"/><text fill="#000000" font-family="sans-serif" font-size="37.5" font-weight="bold" lengthAdjust="spacing" textLength="105.2856" x="1241.6199" y="3011.4685">S207</text><text fill="#000000" font-family="sans-serif" font-size="37.5" lengthAdjust="spacing" textLength="287.8784" x="1358.8257" y="3011.4685">&#8212; safe-fallback</text><rect fill="#FFFFFF" height="218.457" style="stroke:#000000;stroke-width:1.5625;" width="684.6252" x="2014.2441" y="2932.9102"/><text fill="#000000" font-family="sans-serif" font-size="37.5" font-weight="bold" lengthAdjust="spacing" textLength="229.1111" x="2057.9941" y="3011.4685">&#44160;&#51613;&#48512; (240)</text><text fill="#000000" font-family="sans-serif" font-size="37.5" lengthAdjust="spacing" textLength="37.5" x="2299.0254" y="3011.4685">&#8212;</text><text fill="#000000" font-family="sans-serif" font-size="37.5" lengthAdjust="spacing" textLength="317.3401" x="2057.9941" y="3055.1208">verify_signature(</text><text fill="#000000" font-family="sans-serif" font-size="37.5" lengthAdjust="spacing" textLength="573.2849" x="2081.8344" y="3098.7732">pk, signing_message, Layer C)</text><polygon fill="#FFFFFF" points="2248.738,3242.0898,2464.3754,3242.0898,2501.8754,3279.5898,2464.3754,3317.0898,2248.738,3317.0898,2211.238,3279.5898,2248.738,3242.0898" style="stroke:#000000;stroke-width:1.5625;"/><text fill="#000000" font-family="sans-serif" font-size="37.5" lengthAdjust="spacing" textLength="190.6375" x="2261.238" y="3292.572">&#49436;&#47749; valid?</text><text fill="#000000" font-family="sans-serif" font-size="37.5" lengthAdjust="spacing" textLength="64.801" x="2133.9369" y="3258.2458">yes</text><text fill="#000000" font-family="sans-serif" font-size="37.5" lengthAdjust="spacing" textLength="46.7102" x="2514.3754" y="3258.2458">no</text><rect fill="#FFFFFF" height="218.457" style="stroke:#000000;stroke-width:1.5625;" width="557.2754" x="1784.2041" y="3348.3398"/><text fill="#000000" font-family="sans-serif" font-size="37.5" lengthAdjust="spacing" textLength="462.7808" x="1827.9541" y="3426.8982">return (Layer A, Layer B,</text><text fill="#000000" font-family="sans-serif" font-size="37.5" lengthAdjust="spacing" textLength="170.7642" x="1851.7944" y="3470.5505">vr=valid,</text><text fill="#000000" font-family="sans-serif" font-size="37.5" lengthAdjust="spacing" textLength="445.9351" x="1851.7944" y="3514.2029">signature_ref=optional)</text><rect fill="#FFFFFF" height="131.1523" style="stroke:#000000;stroke-width:1.5625;" width="492.5842" x="2403.9795" y="3348.3398"/><text fill="#000000" font-family="sans-serif" font-size="37.5" font-weight="bold" lengthAdjust="spacing" textLength="105.2856" x="2447.7295" y="3426.8982">S207</text><text fill="#000000" font-family="sans-serif" font-size="37.5" lengthAdjust="spacing" textLength="287.8784" x="2564.9353" y="3426.8982">&#8212; safe-fallback</text><polygon fill="#FFFFFF" points="1512.3444,3598.0469,1512.3444,3598.0469,1549.8444,3635.5469,1512.3444,3673.0469,1512.3444,3673.0469,1474.8444,3635.5469,1512.3444,3598.0469" style="stroke:#000000;stroke-width:1.5625;"/><rect fill="#FFFFFF" height="174.8047" style="stroke:#000000;stroke-width:1.5625;" width="711.0252" x="1156.8317" y="3773.0469"/><text fill="#000000" font-family="sans-serif" font-size="37.5" font-weight="bold" lengthAdjust="spacing" textLength="105.2856" x="1200.5817" y="3851.6052">S208</text><text fill="#000000" font-family="sans-serif" font-size="37.5" lengthAdjust="spacing" textLength="496.5192" x="1317.7876" y="3851.6052">&#8212; &#48152;&#54872; &#52636;&#47141; &#51064;&#53552;&#54168;&#51060;&#49828; (260)</text><text fill="#000000" font-family="sans-serif" font-size="37.5" lengthAdjust="spacing" textLength="623.5252" x="1200.5817" y="3895.2576">&#49324;&#50857;&#51088; &#46608;&#45716; &#54980;&#49549; &#51025;&#50857; &#47784;&#46280;&#47196; &#44208;&#44284; &#51204;&#45804;</text><ellipse cx="1512.3444" cy="4044.7266" fill="none" rx="34.375" ry="34.375" style="stroke:#222222;stroke-width:3.125;"/><ellipse cx="1512.3444" cy="4044.7266" fill="#222222" rx="18.75" ry="18.75" style="stroke:#222222;stroke-width:3.125;"/><line style="stroke:#000000;stroke-width:3.125;" x1="1512.3444" x2="1512.3444" y1="235.3027" y2="297.8027"/><polygon fill="#000000" points="1499.8444,266.5527,1512.3444,297.8027,1524.8444,266.5527,1512.3444,279.0527" style="stroke:#000000;stroke-width:3.125;"/><line style="stroke:#000000;stroke-width:3.125;" x1="2171.4605" x2="2171.4605" y1="1040.6738" y2="1103.1738"/><polygon fill="#000000" points="2158.9605,1071.9238,2171.4605,1103.1738,2183.9605,1071.9238,2171.4605,1084.4238" style="stroke:#000000;stroke-width:3.125;"/><line style="stroke:#000000;stroke-width:3.125;" x1="1243.6611" x2="853.2282" y1="778.4668" y2="778.4668"/><line style="stroke:#000000;stroke-width:3.125;" x1="853.2282" x2="853.2282" y1="778.4668" y2="865.8691"/><polygon fill="#000000" points="840.7282,834.6191,853.2282,865.8691,865.7282,834.6191,853.2282,847.1191" style="stroke:#000000;stroke-width:3.125;"/><line style="stroke:#000000;stroke-width:3.125;" x1="1781.0277" x2="2171.4605" y1="778.4668" y2="778.4668"/><line style="stroke:#000000;stroke-width:3.125;" x1="2171.4605" x2="2171.4605" y1="778.4668" y2="865.8691"/><polygon fill="#000000" points="2158.9605,834.6191,2171.4605,865.8691,2183.9605,834.6191,2171.4605,847.1191" style="stroke:#000000;stroke-width:3.125;"/><line style="stroke:#000000;stroke-width:3.125;" x1="853.2282" x2="853.2282" y1="1040.6738" y2="1608.6426"/><line style="stroke:#000000;stroke-width:3.125;" x1="853.2282" x2="1474.8444" y1="1608.6426" y2="1608.6426"/><polygon fill="#000000" points="1443.5944,1596.1426,1474.8444,1608.6426,1443.5944,1621.1426,1456.0944,1608.6426" style="stroke:#000000;stroke-width:3.125;"/><line style="stroke:#000000;stroke-width:3.125;" x1="2171.4605" x2="2171.4605" y1="1539.8926" y2="1608.6426"/><line style="stroke:#000000;stroke-width:3.125;" x1="2171.4605" x2="1549.8444" y1="1608.6426" y2="1608.6426"/><polygon fill="#000000" points="1581.0944,1596.1426,1549.8444,1608.6426,1581.0944,1621.1426,1568.5944,1608.6426" style="stroke:#000000;stroke-width:3.125;"/><line style="stroke:#000000;stroke-width:3.125;" x1="1512.3444" x2="1512.3444" y1="559.9121" y2="722.3145"/><polygon fill="#000000" points="1499.8444,691.0645,1512.3444,722.3145,1524.8444,691.0645,1512.3444,703.5645" style="stroke:#000000;stroke-width:3.125;"/><line style="stroke:#000000;stroke-width:3.125;" x1="1512.3444" x2="1512.3444" y1="2158.3496" y2="2248.9258"/><polygon fill="#000000" points="1499.8444,2217.6758,1512.3444,2248.9258,1524.8444,2217.6758,1512.3444,2230.1758" style="stroke:#000000;stroke-width:3.125;"/><line style="stroke:#000000;stroke-width:3.125;" x1="1764.7249" x2="1802.2249" y1="2120.8496" y2="2120.8496"/><polygon fill="#000000" points="1789.7249,2295.7031,1802.2249,2326.9531,1814.7249,2295.7031,1802.2249,2308.2031" style="stroke:#000000;stroke-width:3.125;"/><line style="stroke:#000000;stroke-width:3.125;" x1="1802.2249" x2="1802.2249" y1="2120.8496" y2="2492.4805"/><line style="stroke:#000000;stroke-width:3.125;" x1="1802.2249" x2="1512.3444" y1="2492.4805" y2="2492.4805"/><line style="stroke:#000000;stroke-width:3.125;" x1="1512.3444" x2="1512.3444" y1="2492.4805" y2="2554.9805"/><polygon fill="#000000" points="1499.8444,2523.7305,1512.3444,2554.9805,1524.8444,2523.7305,1512.3444,2536.2305" style="stroke:#000000;stroke-width:3.125;"/><line style="stroke:#000000;stroke-width:3.125;" x1="1512.3444" x2="1512.3444" y1="2020.8496" y2="2083.3496"/><polygon fill="#000000" points="1499.8444,2052.0996,1512.3444,2083.3496,1524.8444,2052.0996,1512.3444,2064.5996" style="stroke:#000000;stroke-width:3.125;"/><line style="stroke:#000000;stroke-width:3.125;" x1="257.7454" x2="257.7454" y1="3001.4648" y2="3110.8398"/><polygon fill="#000000" points="245.2454,3079.5898,257.7454,3110.8398,270.2454,3079.5898,257.7454,3092.0898" style="stroke:#000000;stroke-width:3.125;"/><line style="stroke:#000000;stroke-width:3.125;" x1="787.5061" x2="787.5061" y1="3001.4648" y2="3110.8398"/><polygon fill="#000000" points="775.0061,3079.5898,787.5061,3110.8398,800.0061,3079.5898,787.5061,3092.0898" style="stroke:#000000;stroke-width:3.125;"/><line style="stroke:#000000;stroke-width:3.125;" x1="2211.238" x2="2062.8418" y1="3279.5898" y2="3279.5898"/><line style="stroke:#000000;stroke-width:3.125;" x1="2062.8418" x2="2062.8418" y1="3279.5898" y2="3348.3398"/><polygon fill="#000000" points="2050.3418,3317.0898,2062.8418,3348.3398,2075.3418,3317.0898,2062.8418,3329.5898" style="stroke:#000000;stroke-width:3.125;"/><line style="stroke:#000000;stroke-width:3.125;" x1="2501.8754" x2="2650.2716" y1="3279.5898" y2="3279.5898"/><line style="stroke:#000000;stroke-width:3.125;" x1="2650.2716" x2="2650.2716" y1="3279.5898" y2="3348.3398"/><polygon fill="#000000" points="2637.7716,3317.0898,2650.2716,3348.3398,2662.7716,3317.0898,2650.2716,3329.5898" style="stroke:#000000;stroke-width:3.125;"/><line style="stroke:#000000;stroke-width:3.125;" x1="2062.8418" x2="2062.8418" y1="3566.7969" y2="3635.5469"/><line style="stroke:#000000;stroke-width:3.125;" x1="2062.8418" x2="1549.8444" y1="3635.5469" y2="3635.5469"/><polygon fill="#000000" points="1581.0944,3623.0469,1549.8444,3635.5469,1581.0944,3648.0469,1568.5944,3635.5469" style="stroke:#000000;stroke-width:3.125;"/><line style="stroke:#000000;stroke-width:3.125;" x1="2356.5567" x2="2356.5567" y1="3151.3672" y2="3242.0898"/><polygon fill="#000000" points="2344.0567,3210.8398,2356.5567,3242.0898,2369.0567,3210.8398,2356.5567,3223.3398" style="stroke:#000000;stroke-width:3.125;"/><line style="stroke:#000000;stroke-width:3.125;" x1="1700.6674" x2="1444.162" y1="2864.1602" y2="2864.1602"/><line style="stroke:#000000;stroke-width:3.125;" x1="1444.162" x2="1444.162" y1="2864.1602" y2="2932.9102"/><polygon fill="#000000" points="1431.662,2901.6602,1444.162,2932.9102,1456.662,2901.6602,1444.162,2914.1602" style="stroke:#000000;stroke-width:3.125;"/><line style="stroke:#000000;stroke-width:3.125;" x1="2100.0513" x2="2356.5567" y1="2864.1602" y2="2864.1602"/><line style="stroke:#000000;stroke-width:3.125;" x1="2356.5567" x2="2356.5567" y1="2864.1602" y2="2932.9102"/><polygon fill="#000000" points="2344.0567,2901.6602,2356.5567,2932.9102,2369.0567,2901.6602,2356.5567,2914.1602" style="stroke:#000000;stroke-width:3.125;"/><line style="stroke:#000000;stroke-width:3.125;" x1="1263.6104" x2="257.7454" y1="2592.4805" y2="2592.4805"/><line style="stroke:#000000;stroke-width:3.125;" x1="257.7454" x2="257.7454" y1="2592.4805" y2="2826.6602"/><polygon fill="#000000" points="245.2454,2795.4102,257.7454,2826.6602,270.2454,2795.4102,257.7454,2807.9102" style="stroke:#000000;stroke-width:3.125;"/><text fill="#000000" font-family="sans-serif" font-size="37.5" lengthAdjust="spacing" textLength="58.3589" x="270.2454" y="2715.8203">&#51228;1</text><text fill="#000000" font-family="sans-serif" font-size="37.5" lengthAdjust="spacing" textLength="142.0898" x="270.2454" y="2759.4727">(public)</text><line style="stroke:#000000;stroke-width:3.125;" x1="1761.0783" x2="1900.3593" y1="2592.4805" y2="2592.4805"/><line style="stroke:#000000;stroke-width:3.125;" x1="1900.3593" x2="1900.3593" y1="2592.4805" y2="2826.6602"/><polygon fill="#000000" points="1887.8593,2795.4102,1900.3593,2826.6602,1912.8593,2795.4102,1900.3593,2807.9102" style="stroke:#000000;stroke-width:3.125;"/><text fill="#000000" font-family="sans-serif" font-size="37.5" lengthAdjust="spacing" textLength="58.3589" x="1912.8593" y="2715.8203">&#51228;3</text><text fill="#000000" font-family="sans-serif" font-size="37.5" lengthAdjust="spacing" textLength="170.8557" x="1912.8593" y="2759.4727">(verified)</text><line style="stroke:#000000;stroke-width:3.125;" x1="787.5061" x2="787.5061" y1="2592.4805" y2="2826.6602"/><polygon fill="#000000" points="775.0061,2795.4102,787.5061,2826.6602,800.0061,2795.4102,787.5061,2807.9102" style="stroke:#000000;stroke-width:3.125;"/><text fill="#000000" font-family="sans-serif" font-size="37.5" lengthAdjust="spacing" textLength="58.3589" x="800.0061" y="2700.1953">&#51228;2</text><text fill="#000000" font-family="sans-serif" font-size="37.5" lengthAdjust="spacing" textLength="291.6138" x="800.0061" y="2743.8477">(authenticated)</text><line style="stroke:#000000;stroke-width:3.125;" x1="1512.3444" x2="1512.3444" y1="1646.1426" y2="1846.0449"/><polygon fill="#000000" points="1499.8444,1814.7949,1512.3444,1846.0449,1524.8444,1814.7949,1512.3444,1827.2949" style="stroke:#000000;stroke-width:3.125;"/><line style="stroke:#000000;stroke-width:3.125;" x1="1512.3444" x2="1512.3444" y1="3673.0469" y2="3773.0469"/><polygon fill="#000000" points="1499.8444,3741.7969,1512.3444,3773.0469,1524.8444,3741.7969,1512.3444,3754.2969" style="stroke:#000000;stroke-width:3.125;"/><line style="stroke:#000000;stroke-width:3.125;" x1="1512.3444" x2="1512.3444" y1="3947.8516" y2="4010.3516"/><polygon fill="#000000" points="1499.8444,3979.1016,1512.3444,4010.3516,1524.8444,3979.1016,1512.3444,3991.6016" style="stroke:#000000;stroke-width:3.125;"/><!--SRC=[bLLDRzj64BthLqpT2schhlNPmePQ96cA14WFJNkh386cLlB252MGb5CX222aZ27uer5Q6PPJoRK1ruu31LKSnn6AzDAVugDs-HywooKLoKw1L0UHt9rz- -RDczsFgAaRrJo1t0gjb7EsKpF8BAsMZ4Z4eOv1u6jQd8K4NDHRm5ej_dUBRRL0YSVdL63zny2EUlnWm4vT74lX6E-sWJtUvNjFmEissP4RYTYEPZcH-Udfx-9pSzFJFfJtSvjtpzX1X_tQ0RxtYEt_0SgtTu6l7_A_cinj8D30S_io3aSX7fjJisP5gnbbBGyAstZ6ksydSLXlmFUQVESi2dwmfkl4jdC6MIK6N3GQS9_lTs9HmF-u_vy0VjuHM_D6cn_M7o1-TScWUcw5r43XxhxtKrTTY4Ggc01rQDc4gKiQJC7z200jWEAd5mlI6xxkUK-ta0meiRWAmtxz7NNsy8plD84VdF6zdhVTPkijdFzI1MUPcA2OPHKH0UOjubGjCsiguKBDXZjQZLXmBGgaL75gmUVrJsyWIR76B3i4B5fSTlnF0A5I0uLv_ipN-RIDvGgc57xwGj3SVW4fkICnypu2VX339g3KY1rmyPEB1ydP5OCwobStxzp-vlRtD-z6eQJzc8cXtXThluGCCU-O6WLlVS3s6rWezdiFXn81JucN2Bqm7XJespg16V1s3eNGtkOcttYPDGkMLYAGWIND9kdax58wcITwEKyKnzAeGInaeAmIoyOwHM49ouuFNJnKo6HDW2gMG5zHfhwuVklML1Hyk1_cKuigmCKQ5WHzTko6cogn9EAXh_c- -y-RuM20qsYPRM_xXBilONXQvqVTh1bK0CDJk4k0cO9vICtu31R3a1iOaXuBaTCmBuXD_8AP6P_vej0Bwq8BaGUJDfniEsb3AMioa7N2seBwy4t7sssXIEpF0J-kYqwTx10idsYGoPN2_sCEJmNeKdf0BOQlNbynxyVtbgb399_FGjje1V99GJEC9Qn2ACirOCURU92qlTssz4QUE9g-VDc3KWDyiUzHHryEoAJVcoexTuU3lbYbQm92v2JQo6zjTQAxG0axIjHXrSe4GPAAxPGhuoXnHD6g8bE7wff3yly55ZPcY5erqPUqG775-v4JqheoH88AnSTE8tbSN17w0wHU2097mbvfRzyvqj7il8wEIiwf4YahYTToDYsQ6YP9595IPIKAOeIQnLm93QGLIPXpU1J91BZROSyVmQfcqFo8-zY-7w2TlzR_6778MQIGALT49sZ6Q3-Pr3jX_eSq4-A4PXj_mwSqdcX32VXv02YzExBWfLjBYQV5JSGVzlZJ4t4Vi7OJ3tpmVdFvsXQ6Fy5nUJuty1R3SwK_VFKMsz1b6xs5YE-JVm40]--></g></svg>