<svg xmlns="http://www.w3.org/2000/svg" xmlns:xlink="http://www.w3.org/1999/xlink" contentStyleType="text/css" height="4215.625px" preserveAspectRatio="none" style="width:2959px;height:4215px;background:#FFFFFF;" version="1.1" viewBox="0 0 2959 4215" width="2959.375px" zoomAndPan="magnify"><title>Fig. 3 &#8212; &#46356;&#53076;&#45908; (220) &#48143; &#47532;&#51320;&#48260; (250) &#51032; &#46041;&#51089; &#55120;&#47492;</title><defs/><g><text fill="#000000" font-family="sans-serif" font-size="43.75" font-weight="bold" lengthAdjust="spacing" textLength="1064.9498" x="943.5596" y="115.6097">Fig. 3 &#8212; &#46356;&#53076;&#45908; (220) &#48143; &#47532;&#51320;&#48260; (250) &#51032; &#46041;&#51089; &#55120;&#47492;</text><ellipse cx="1508.847" cy="204.0527" fill="#000000" rx="31.25" ry="31.25" style="stroke:#222222;stroke-width:3.125;"/><rect fill="#FFFFFF" height="262.1094" style="stroke:#000000;stroke-width:1.5625;" width="953.1392" x="1032.2774" y="297.8027"/><text fill="#000000" font-family="sans-serif" font-size="37.5" font-weight="bold" lengthAdjust="spacing" textLength="105.2856" x="1076.0274" y="376.3611">S200</text><text fill="#000000" font-family="sans-serif" font-size="37.5" lengthAdjust="spacing" textLength="748.4334" x="1193.2333" y="376.3611">&#8212; &#54168;&#51060;&#47196;&#46300; &#51077;&#47141; (QR &#49828;&#52880;&#45320; &#51064;&#53552;&#54168;&#51060;&#49828; 210)</text><text fill="#000000" font-family="sans-serif" font-size="37.5" lengthAdjust="spacing" textLength="596.2018" x="1076.0274" y="420.0134">payload (&#45800;&#51068; &#54168;&#51060;&#47196;&#46300; &#47928;&#51088;&#50676;, 10)</text><text fill="#000000" font-family="sans-serif" font-size="37.5" lengthAdjust="spacing" textLength="723.1059" x="1076.0274" y="463.6658">access_level &#8712; {&#51228;1, &#51228;2, &#51228;3 &#52636;&#47141; &#49688;&#51456;}</text><text fill="#000000" font-family="sans-serif" font-size="37.5" lengthAdjust="spacing" textLength="308.7405" x="1076.0274" y="507.3181">public_key (&#49440;&#53469;)</text><rect fill="none" height="1092.4805" style="stroke:#000000;stroke-width:4.6875;" width="2314.9978" x="381.5088" y="591.1621"/><path d="M654.016,591.1621 L654.016,637.9395 L622.766,669.1895 L381.5088,669.1895 " fill="none" style="stroke:#000000;stroke-width:4.6875;"/><text fill="#000000" font-family="sans-serif" font-size="37.5" lengthAdjust="spacing" textLength="216.2571" x="403.3838" y="641.5955">&#46356;&#53076;&#45908; (220)</text><polygon fill="#FFFFFF" points="1277.6638,722.3145,1740.0303,722.3145,1777.5303,778.4668,1740.0303,834.6191,1277.6638,834.6191,1240.1638,778.4668,1277.6638,722.3145" style="stroke:#000000;stroke-width:1.5625;"/><text fill="#000000" font-family="sans-serif" font-size="37.5" font-weight="bold" lengthAdjust="spacing" textLength="105.2856" x="1290.1638" y="769.6228">S201</text><text fill="#000000" font-family="sans-serif" font-size="37.5" lengthAdjust="spacing" textLength="291.2388" x="1407.3696" y="769.6228">&#8212; &#44396;&#54925;&#51088; (12) &#44032;</text><text fill="#000000" font-family="sans-serif" font-size="37.5" lengthAdjust="spacing" textLength="437.3666" x="1290.1638" y="813.2751">payload &#45236;&#50640; &#51316;&#51116;&#54616;&#45716;&#44032;?</text><text fill="#000000" font-family="sans-serif" font-size="37.5" lengthAdjust="spacing" textLength="46.7102" x="1180.9536" y="757.1228">no</text><text fill="#000000" font-family="sans-serif" font-size="37.5" lengthAdjust="spacing" textLength="64.801" x="1790.0303" y="757.1228">yes</text><path d="M1317.9529,881.4941 L1317.9529,940.7715 L1255.4529,953.2715 L1317.9529,965.7715 L1317.9529,1025.0488 A0,0 0 0 0 1317.9529,1025.0488 L1639.4198,1025.0488 A0,0 0 0 0 1639.4198,1025.0488 L1639.4198,912.7441 L1608.1698,881.4941 L1317.9529,881.4941 A0,0 0 0 0 1317.9529,881.4941 " fill="#FFFFFF" style="stroke:#000000;stroke-width:1.5625;"/><path d="M1608.1698,881.4941 L1608.1698,912.7441 L1639.4198,912.7441 L1608.1698,881.4941 " fill="#FFFFFF" style="stroke:#000000;stroke-width:1.5625;"/><text fill="#000000" font-family="sans-serif" font-size="37.5" lengthAdjust="spacing" textLength="230.8419" x="1349.2029" y="944.4275">&#45800;&#49692; &#47784;&#46300; &#52376;&#47532;</text><text fill="#000000" font-family="sans-serif" font-size="37.5" lengthAdjust="spacing" textLength="168.5399" x="1349.2029" y="988.0798">(&#52397;&#44396;&#54637; 5)</text><rect fill="#FFFFFF" height="174.8047" style="stroke:#000000;stroke-width:1.5625;" width="811.4441" x="444.0088" y="865.8691"/><text fill="#000000" font-family="sans-serif" font-size="37.5" lengthAdjust="spacing" textLength="116.1438" x="487.7588" y="944.4275">return</text><text fill="#000000" font-family="sans-serif" font-size="37.5" lengthAdjust="spacing" textLength="723.9441" x="487.7588" y="988.0798">(payload as Layer A, empty Layer B/C)</text><rect fill="#FFFFFF" height="174.8047" style="stroke:#000000;stroke-width:1.5625;" width="723.6816" x="1806.1224" y="865.8691"/><text fill="#000000" font-family="sans-serif" font-size="37.5" font-weight="bold" lengthAdjust="spacing" textLength="105.2856" x="1849.8724" y="944.4275">S202</text><text fill="#000000" font-family="sans-serif" font-size="37.5" lengthAdjust="spacing" textLength="518.9758" x="1967.0782" y="944.4275">&#8212; split(DELIMITER, max=1)</text><text fill="#000000" font-family="sans-serif" font-size="37.5" lengthAdjust="spacing" textLength="525.1043" x="1849.8724" y="988.0798">&#8594; Layer A (11), &#53944;&#47112;&#51068;&#47084; (13)</text><rect fill="#FFFFFF" height="436.7188" style="stroke:#000000;stroke-width:1.5625;" width="932.0868" x="1701.9198" y="1103.1738"/><text fill="#000000" font-family="sans-serif" font-size="37.5" font-weight="bold" lengthAdjust="spacing" textLength="105.2856" x="1745.6698" y="1181.7322">S203</text><text fill="#000000" font-family="sans-serif" font-size="37.5" lengthAdjust="spacing" textLength="508.0246" x="1862.8757" y="1181.7322">&#8212; &#53944;&#47112;&#51068;&#47084; &#46356;&#53076;&#46377; + &#54756;&#45908; &#54028;&#49905;</text><text fill="#000000" font-family="sans-serif" font-size="37.5" lengthAdjust="spacing" textLength="666.0095" x="1745.6698" y="1225.3845">frame = base64.b64decode(trailer)</text><text fill="#000000" font-family="sans-serif" font-size="37.5" lengthAdjust="spacing" textLength="454.0649" x="1745.6698" y="1269.0369">(version, b_len, c_len) =</text><text fill="#000000" font-family="sans-serif" font-size="37.5" lengthAdjust="spacing" textLength="820.7464" x="1769.5102" y="1312.6892">unpack("&gt;BHH", frame[:5])  &#8592; &#51060;&#51652; &#54756;&#45908; (14)</text><text fill="#000000" font-family="sans-serif" font-size="37.5" lengthAdjust="spacing" textLength="346.2629" x="1745.6698" y="1356.3416">&#48260;&#51204;&#183;&#44600;&#51060; &#51221;&#54633;&#49457; &#44160;&#51613;</text><text fill="#000000" font-family="sans-serif" font-size="37.5" lengthAdjust="spacing" textLength="642.2424" x="1745.6698" y="1399.9939">Layer B (15) = frame[5 : 5+b_len]</text><text fill="#000000" font-family="sans-serif" font-size="37.5" lengthAdjust="spacing" textLength="592.2913" x="1745.6698" y="1443.6462">Layer C (16) = frame[5+b_len :</text><text fill="#000000" font-family="sans-serif" font-size="37.5" lengthAdjust="spacing" textLength="297.7661" x="1924.4723" y="1487.2986">5+b_len+c_len]</text><polygon fill="#FFFFFF" points="1508.847,1571.1426,1546.347,1608.6426,1508.847,1646.1426,1471.347,1608.6426,1508.847,1571.1426" style="stroke:#000000;stroke-width:1.5625;"/><rect fill="none" height="2098.3887" style="stroke:#000000;stroke-width:4.6875;" width="2892.6941" x="34.375" y="1714.8926"/><path d="M306.8821,1714.8926 L306.8821,1761.6699 L275.6321,1792.9199 L34.375,1792.9199 " fill="none" style="stroke:#000000;stroke-width:4.6875;"/><text fill="#000000" font-family="sans-serif" font-size="37.5" lengthAdjust="spacing" textLength="216.2571" x="56.25" y="1765.3259">&#47532;&#51320;&#48260; (250)</text><rect fill="#FFFFFF" height="174.8047" style="stroke:#000000;stroke-width:1.5625;" width="741.9262" x="1137.8839" y="1846.0449"/><text fill="#000000" font-family="sans-serif" font-size="37.5" font-weight="bold" lengthAdjust="spacing" textLength="105.2856" x="1181.6339" y="1924.6033">S204</text><text fill="#000000" font-family="sans-serif" font-size="37.5" lengthAdjust="spacing" textLength="314.7624" x="1298.8398" y="1924.6033">&#8212; &#52636;&#47141; &#49688;&#51456; &#51221;&#44508;&#54868;</text><text fill="#000000" font-family="sans-serif" font-size="37.5" lengthAdjust="spacing" textLength="654.4262" x="1181.6339" y="1968.2556">(&#48120;&#51648;&#51032; access_level &#8594; &#51228;1 &#52636;&#47141; &#49688;&#51456;)</text><rect fill="#FFFFFF" height="174.8047" style="stroke:#000000;stroke-width:1.5625;" width="492.5842" x="1262.5549" y="2248.9258"/><text fill="#000000" font-family="sans-serif" font-size="37.5" font-weight="bold" lengthAdjust="spacing" textLength="105.2856" x="1306.3049" y="2327.4841">S207</text><text fill="#000000" font-family="sans-serif" font-size="37.5" lengthAdjust="spacing" textLength="287.8784" x="1423.5107" y="2327.4841">&#8212; safe-fallback</text><text fill="#000000" font-family="sans-serif" font-size="37.5" lengthAdjust="spacing" textLength="269.4676" x="1306.3049" y="2371.1365">Layer A &#47564; &#48152;&#54872;</text><polygon fill="#FFFFFF" points="1293.9665,2083.3496,1723.7276,2083.3496,1761.2276,2120.8496,1723.7276,2158.3496,1293.9665,2158.3496,1256.4665,2120.8496,1293.9665,2083.3496" style="stroke:#000000;stroke-width:1.5625;"/><text fill="#000000" font-family="sans-serif" font-size="37.5" lengthAdjust="spacing" textLength="46.7102" x="1533.847" y="2205.658">no</text><text fill="#000000" font-family="sans-serif" font-size="37.5" font-weight="bold" lengthAdjust="spacing" textLength="105.2856" x="1306.4665" y="2133.8318">S205</text><text fill="#000000" font-family="sans-serif" font-size="37.5" lengthAdjust="spacing" textLength="287.5552" x="1423.6723" y="2133.8318">&#8212; decode &#49457;&#44277;?</text><text fill="#000000" font-family="sans-serif" font-size="37.5" lengthAdjust="spacing" textLength="64.801" x="1773.7276" y="2099.5056">yes</text><polygon fill="#FFFFFF" points="1297.6131,2554.9805,1720.081,2554.9805,1757.581,2592.4805,1720.081,2629.9805,1297.6131,2629.9805,1260.1131,2592.4805,1297.6131,2554.9805" style="stroke:#000000;stroke-width:1.5625;"/><text fill="#000000" font-family="sans-serif" font-size="37.5" font-weight="bold" lengthAdjust="spacing" textLength="105.2856" x="1310.1131" y="2605.4626">S206</text><text fill="#000000" font-family="sans-serif" font-size="37.5" lengthAdjust="spacing" textLength="280.2621" x="1427.3189" y="2605.4626">&#8212; &#52636;&#47141; &#49688;&#51456; &#48516;&#44592;</text><rect fill="#FFFFFF" height="174.8047" style="stroke:#000000;stroke-width:1.5625;" width="384.2407" x="65.625" y="2826.6602"/><text fill="#000000" font-family="sans-serif" font-size="37.5" lengthAdjust="spacing" textLength="296.7407" x="109.375" y="2905.2185">return (Layer A,</text><text fill="#000000" font-family="sans-serif" font-size="37.5" lengthAdjust="spacing" textLength="196.4905" x="133.2153" y="2948.8708">vr=public)</text><ellipse cx="257.7454" cy="3145.2148" fill="none" rx="34.375" ry="34.375" style="stroke:#222222;stroke-width:3.125;"/><ellipse cx="257.7454" cy="3145.2148" fill="#222222" rx="18.75" ry="18.75" style="stroke:#222222;stroke-width:3.125;"/><rect fill="#FFFFFF" height="174.8047" style="stroke:#000000;stroke-width:1.5625;" width="550.2808" x="512.3657" y="2826.6602"/><text fill="#000000" font-family="sans-serif" font-size="37.5" lengthAdjust="spacing" textLength="462.7808" x="556.1157" y="2905.2185">return (Layer A, Layer B,</text><text fill="#000000" font-family="sans-serif" font-size="37.5" lengthAdjust="spacing" textLength="272.7905" x="579.9561" y="2948.8708">vr=unverified)</text><ellipse cx="787.5061" cy="3145.2148" fill="none" rx="34.375" ry="34.375" style="stroke:#222222;stroke-width:3.125;"/><ellipse cx="787.5061" cy="3145.2148" fill="#222222" rx="18.75" ry="18.75" style="stroke:#222222;stroke-width:3.125;"/><polygon fill="#FFFFFF" points="1735.5444,2826.6602,2059.9283,2826.6602,2097.4283,2864.1602,2059.9283,2901.6602,1735.5444,2901.6602,1698.0444,2864.1602,1735.5444,2826.6602" style="stroke:#000000;stroke-width:1.5625;"/><text fill="#000000" font-family="sans-serif" font-size="37.5" lengthAdjust="spacing" textLength="299.3838" x="1748.0444" y="2877.1423">public_key &#51316;&#51116;?</text><text fill="#000000" font-family="sans-serif" font-size="37.5" lengthAdjust="spacing" textLength="46.7102" x="1638.8342" y="2842.8162">no</text><text fill="#000000" font-family="sans-serif" font-size="37.5" lengthAdjust="spacing" textLength="64.801" x="2109.9283" y="2842.8162">yes</text><rect fill="#FFFFFF" height="131.1523" style="stroke:#000000;stroke-width:1.5625;" width="492.5842" x="1197.8699" y="2932.9102"/><text fill="#000000" font-family="sans-serif" font-size="37.5" font-weight="bold" lengthAdjust="spacing" textLength="105.2856" x="1241.6199" y="3011.4685">S207</text><text fill="#000000" font-family="sans-serif" font-size="37.5" lengthAdjust="spacing" textLength="287.8784" x="1358.8257" y="3011.4685">&#8212; safe-fallback</text><rect fill="#FFFFFF" height="305.7617" style="stroke:#000000;stroke-width:1.5625;" width="615.2649" x="2043.6783" y="2932.9102"/><text fill="#000000" font-family="sans-serif" font-size="37.5" font-weight="bold" lengthAdjust="spacing" textLength="229.1111" x="2087.4283" y="3011.4685">&#44160;&#51613;&#48512; (240)</text><text fill="#000000" font-family="sans-serif" font-size="37.5" lengthAdjust="spacing" textLength="37.5" x="2328.4596" y="3011.4685">&#8212;</text><text fill="#000000" font-family="sans-serif" font-size="37.5" lengthAdjust="spacing" textLength="438.2176" x="2087.4283" y="3055.1208">signing_message &#51116;&#44396;&#49457;</text><text fill="#000000" font-family="sans-serif" font-size="37.5" lengthAdjust="spacing" textLength="357.9075" x="2087.4283" y="3098.7732">(A, B &#47196;&#48512;&#53552;, &#167;8.1.1)</text><text fill="#000000" font-family="sans-serif" font-size="37.5" lengthAdjust="spacing" textLength="374.7803" x="2087.4283" y="3142.4255">verify_signature(pk,</text><text fill="#000000" font-family="sans-serif" font-size="37.5" lengthAdjust="spacing" textLength="503.9246" x="2111.2686" y="3186.0779">signing_message, Layer C)</text><polygon fill="#FFFFFF" points="2243.492,3301.1719,2459.1295,3301.1719,2496.6295,3338.6719,2459.1295,3376.1719,2243.492,3376.1719,2205.992,3338.6719,2243.492,3301.1719" style="stroke:#000000;stroke-width:1.5625;"/><text fill="#000000" font-family="sans-serif" font-size="37.5" lengthAdjust="spacing" textLength="190.6375" x="2255.992" y="3351.6541">&#49436;&#47749; valid?</text><text fill="#000000" font-family="sans-serif" font-size="37.5" lengthAdjust="spacing" textLength="64.801" x="2128.691" y="3317.3279">yes</text><text fill="#000000" font-family="sans-serif" font-size="37.5" lengthAdjust="spacing" textLength="46.7102" x="2509.1295" y="3317.3279">no</text><rect fill="#FFFFFF" height="262.1094" style="stroke:#000000;stroke-width:1.5625;" width="550.2808" x="1784.2041" y="3407.4219"/><text fill="#000000" font-family="sans-serif" font-size="37.5" lengthAdjust="spacing" textLength="462.7808" x="1827.9541" y="3485.9802">return (Layer A, Layer B,</text><text fill="#000000" font-family="sans-serif" font-size="37.5" lengthAdjust="spacing" textLength="170.7642" x="1851.7944" y="3529.6326">vr=valid,</text><text fill="#000000" font-family="sans-serif" font-size="37.5" lengthAdjust="spacing" textLength="360.8643" x="1851.7944" y="3573.2849">signature=optional</text><text fill="#000000" font-family="sans-serif" font-size="37.5" lengthAdjust="spacing" textLength="236.8835" x="1863.7146" y="3616.9373">(diagnostic))</text><rect fill="#FFFFFF" height="131.1523" style="stroke:#000000;stroke-width:1.5625;" width="492.5842" x="2396.9849" y="3407.4219"/><text fill="#000000" font-family="sans-serif" font-size="37.5" font-weight="bold" lengthAdjust="spacing" textLength="105.2856" x="2440.7349" y="3485.9802">S207</text><text fill="#000000" font-family="sans-serif" font-size="37.5" lengthAdjust="spacing" textLength="287.8784" x="2557.9407" y="3485.9802">&#8212; safe-fallback</text><polygon fill="#FFFFFF" points="1508.847,3700.7813,1508.847,3700.7813,1546.347,3738.2813,1508.847,3775.7813,1508.847,3775.7813,1471.347,3738.2813,1508.847,3700.7813" style="stroke:#000000;stroke-width:1.5625;"/><rect fill="#FFFFFF" height="174.8047" style="stroke:#000000;stroke-width:1.5625;" width="711.0252" x="1153.3344" y="3875.7813"/><text fill="#000000" font-family="sans-serif" font-size="37.5" font-weight="bold" lengthAdjust="spacing" textLength="105.2856" x="1197.0844" y="3954.3396">S208</text><text fill="#000000" font-family="sans-serif" font-size="37.5" lengthAdjust="spacing" textLength="496.5192" x="1314.2902" y="3954.3396">&#8212; &#48152;&#54872; &#52636;&#47141; &#51064;&#53552;&#54168;&#51060;&#49828; (260)</text><text fill="#000000" font-family="sans-serif" font-size="37.5" lengthAdjust="spacing" textLength="623.5252" x="1197.0844" y="3997.9919">&#49324;&#50857;&#51088; &#46608;&#45716; &#54980;&#49549; &#51025;&#50857; &#47784;&#46280;&#47196; &#44208;&#44284; &#51204;&#45804;</text><ellipse cx="1508.847" cy="4147.4609" fill="none" rx="34.375" ry="34.375" style="stroke:#222222;stroke-width:3.125;"/><ellipse cx="1508.847" cy="4147.4609" fill="#222222" rx="18.75" ry="18.75" style="stroke:#222222;stroke-width:3.125;"/><line style="stroke:#000000;stroke-width:3.125;" x1="1508.847" x2="1508.847" y1="235.3027" y2="297.8027"/><polygon fill="#000000" points="1496.347,266.5527,1508.847,297.8027,1521.347,266.5527,1508.847,279.0527" style="stroke:#000000;stroke-width:3.125;"/><line style="stroke:#000000;stroke-width:3.125;" x1="2167.9632" x2="2167.9632" y1="1040.6738" y2="1103.1738"/><polygon fill="#000000" points="2155.4632,1071.9238,2167.9632,1103.1738,2180.4632,1071.9238,2167.9632,1084.4238" style="stroke:#000000;stroke-width:3.125;"/><line style="stroke:#000000;stroke-width:3.125;" x1="1240.1638" x2="849.7309" y1="778.4668" y2="778.4668"/><line style="stroke:#000000;stroke-width:3.125;" x1="849.7309" x2="849.7309" y1="778.4668" y2="865.8691"/><polygon fill="#000000" points="837.2309,834.6191,849.7309,865.8691,862.2309,834.6191,849.7309,847.1191" style="stroke:#000000;stroke-width:3.125;"/><line style="stroke:#000000;stroke-width:3.125;" x1="1777.5303" x2="2167.9632" y1="778.4668" y2="778.4668"/><line style="stroke:#000000;stroke-width:3.125;" x1="2167.9632" x2="2167.9632" y1="778.4668" y2="865.8691"/><polygon fill="#000000" points="2155.4632,834.6191,2167.9632,865.8691,2180.4632,834.6191,2167.9632,847.1191" style="stroke:#000000;stroke-width:3.125;"/><line style="stroke:#000000;stroke-width:3.125;" x1="849.7309" x2="849.7309" y1="1040.6738" y2="1608.6426"/><line style="stroke:#000000;stroke-width:3.125;" x1="849.7309" x2="1471.347" y1="1608.6426" y2="1608.6426"/><polygon fill="#000000" points="1440.097,1596.1426,1471.347,1608.6426,1440.097,1621.1426,1452.597,1608.6426" style="stroke:#000000;stroke-width:3.125;"/><line style="stroke:#000000;stroke-width:3.125;" x1="2167.9632" x2="2167.9632" y1="1539.8926" y2="1608.6426"/><line style="stroke:#000000;stroke-width:3.125;" x1="2167.9632" x2="1546.347" y1="1608.6426" y2="1608.6426"/><polygon fill="#000000" points="1577.597,1596.1426,1546.347,1608.6426,1577.597,1621.1426,1565.097,1608.6426" style="stroke:#000000;stroke-width:3.125;"/><line style="stroke:#000000;stroke-width:3.125;" x1="1508.847" x2="1508.847" y1="559.9121" y2="722.3145"/><polygon fill="#000000" points="1496.347,691.0645,1508.847,722.3145,1521.347,691.0645,1508.847,703.5645" style="stroke:#000000;stroke-width:3.125;"/><line style="stroke:#000000;stroke-width:3.125;" x1="1508.847" x2="1508.847" y1="2158.3496" y2="2248.9258"/><polygon fill="#000000" points="1496.347,2217.6758,1508.847,2248.9258,1521.347,2217.6758,1508.847,2230.1758" style="stroke:#000000;stroke-width:3.125;"/><line style="stroke:#000000;stroke-width:3.125;" x1="1761.2276" x2="1798.7276" y1="2120.8496" y2="2120.8496"/><polygon fill="#000000" points="1786.2276,2295.7031,1798.7276,2326.9531,1811.2276,2295.7031,1798.7276,2308.2031" style="stroke:#000000;stroke-width:3.125;"/><line style="stroke:#000000;stroke-width:3.125;" x1="1798.7276" x2="1798.7276" y1="2120.8496" y2="2492.4805"/><line style="stroke:#000000;stroke-width:3.125;" x1="1798.7276" x2="1508.847" y1="2492.4805" y2="2492.4805"/><line style="stroke:#000000;stroke-width:3.125;" x1="1508.847" x2="1508.847" y1="2492.4805" y2="2554.9805"/><polygon fill="#000000" points="1496.347,2523.7305,1508.847,2554.9805,1521.347,2523.7305,1508.847,2536.2305" style="stroke:#000000;stroke-width:3.125;"/><line style="stroke:#000000;stroke-width:3.125;" x1="1508.847" x2="1508.847" y1="2020.8496" y2="2083.3496"/><polygon fill="#000000" points="1496.347,2052.0996,1508.847,2083.3496,1521.347,2052.0996,1508.847,2064.5996" style="stroke:#000000;stroke-width:3.125;"/><line style="stroke:#000000;stroke-width:3.125;" x1="257.7454" x2="257.7454" y1="3001.4648" y2="3110.8398"/><polygon fill="#000000" points="245.2454,3079.5898,257.7454,3110.8398,270.2454,3079.5898,257.7454,3092.0898" style="stroke:#000000;stroke-width:3.125;"/><line style="stroke:#000000;stroke-width:3.125;" x1="787.5061" x2="787.5061" y1="3001.4648" y2="3110.8398"/><polygon fill="#000000" points="775.0061,3079.5898,787.5061,3110.8398,800.0061,3079.5898,787.5061,3092.0898" style="stroke:#000000;stroke-width:3.125;"/><line style="stroke:#000000;stroke-width:3.125;" x1="2205.992" x2="2059.3445" y1="3338.6719" y2="3338.6719"/><line style="stroke:#000000;stroke-width:3.125;" x1="2059.3445" x2="2059.3445" y1="3338.6719" y2="3407.4219"/><polygon fill="#000000" points="2046.8445,3376.1719,2059.3445,3407.4219,2071.8445,3376.1719,2059.3445,3388.6719" style="stroke:#000000;stroke-width:3.125;"/><line style="stroke:#000000;stroke-width:3.125;" x1="2496.6295" x2="2643.277" y1="3338.6719" y2="3338.6719"/><line style="stroke:#000000;stroke-width:3.125;" x1="2643.277" x2="2643.277" y1="3338.6719" y2="3407.4219"/><polygon fill="#000000" points="2630.777,3376.1719,2643.277,3407.4219,2655.777,3376.1719,2643.277,3388.6719" style="stroke:#000000;stroke-width:3.125;"/><line style="stroke:#000000;stroke-width:3.125;" x1="2059.3445" x2="2059.3445" y1="3669.5313" y2="3738.2813"/><line style="stroke:#000000;stroke-width:3.125;" x1="2059.3445" x2="1546.347" y1="3738.2813" y2="3738.2813"/><polygon fill="#000000" points="1577.597,3725.7813,1546.347,3738.2813,1577.597,3750.7813,1565.097,3738.2813" style="stroke:#000000;stroke-width:3.125;"/><line style="stroke:#000000;stroke-width:3.125;" x1="2351.3107" x2="2351.3107" y1="3238.6719" y2="3301.1719"/><polygon fill="#000000" points="2338.8107,3269.9219,2351.3107,3301.1719,2363.8107,3269.9219,2351.3107,3282.4219" style="stroke:#000000;stroke-width:3.125;"/><line style="stroke:#000000;stroke-width:3.125;" x1="1698.0444" x2="1444.162" y1="2864.1602" y2="2864.1602"/><line style="stroke:#000000;stroke-width:3.125;" x1="1444.162" x2="1444.162" y1="2864.1602" y2="2932.9102"/><polygon fill="#000000" points="1431.662,2901.6602,1444.162,2932.9102,1456.662,2901.6602,1444.162,2914.1602" style="stroke:#000000;stroke-width:3.125;"/><line style="stroke:#000000;stroke-width:3.125;" x1="2097.4283" x2="2351.3107" y1="2864.1602" y2="2864.1602"/><line style="stroke:#000000;stroke-width:3.125;" x1="2351.3107" x2="2351.3107" y1="2864.1602" y2="2932.9102"/><polygon fill="#000000" points="2338.8107,2901.6602,2351.3107,2932.9102,2363.8107,2901.6602,2351.3107,2914.1602" style="stroke:#000000;stroke-width:3.125;"/><line style="stroke:#000000;stroke-width:3.125;" x1="1260.1131" x2="257.7454" y1="2592.4805" y2="2592.4805"/><line style="stroke:#000000;stroke-width:3.125;" x1="257.7454" x2="257.7454" y1="2592.4805" y2="2826.6602"/><polygon fill="#000000" points="245.2454,2795.4102,257.7454,2826.6602,270.2454,2795.4102,257.7454,2807.9102" style="stroke:#000000;stroke-width:3.125;"/><text fill="#000000" font-family="sans-serif" font-size="37.5" lengthAdjust="spacing" textLength="58.3589" x="270.2454" y="2715.8203">&#51228;1</text><text fill="#000000" font-family="sans-serif" font-size="37.5" lengthAdjust="spacing" textLength="142.0898" x="270.2454" y="2759.4727">(public)</text><line style="stroke:#000000;stroke-width:3.125;" x1="1757.581" x2="1897.7364" y1="2592.4805" y2="2592.4805"/><line style="stroke:#000000;stroke-width:3.125;" x1="1897.7364" x2="1897.7364" y1="2592.4805" y2="2826.6602"/><polygon fill="#000000" points="1885.2364,2795.4102,1897.7364,2826.6602,1910.2364,2795.4102,1897.7364,2807.9102" style="stroke:#000000;stroke-width:3.125;"/><text fill="#000000" font-family="sans-serif" font-size="37.5" lengthAdjust="spacing" textLength="58.3589" x="1910.2364" y="2715.8203">&#51228;3</text><text fill="#000000" font-family="sans-serif" font-size="37.5" lengthAdjust="spacing" textLength="170.8557" x="1910.2364" y="2759.4727">(verified)</text><line style="stroke:#000000;stroke-width:3.125;" x1="787.5061" x2="787.5061" y1="2592.4805" y2="2826.6602"/><polygon fill="#000000" points="775.0061,2795.4102,787.5061,2826.6602,800.0061,2795.4102,787.5061,2807.9102" style="stroke:#000000;stroke-width:3.125;"/><text fill="#000000" font-family="sans-serif" font-size="37.5" lengthAdjust="spacing" textLength="58.3589" x="800.0061" y="2700.1953">&#51228;2</text><text fill="#000000" font-family="sans-serif" font-size="37.5" lengthAdjust="spacing" textLength="291.6138" x="800.0061" y="2743.8477">(authenticated)</text><line style="stroke:#000000;stroke-width:3.125;" x1="1508.847" x2="1508.847" y1="1646.1426" y2="1846.0449"/><polygon fill="#000000" points="1496.347,1814.7949,1508.847,1846.0449,1521.347,1814.7949,1508.847,1827.2949" style="stroke:#000000;stroke-width:3.125;"/><line style="stroke:#000000;stroke-width:3.125;" x1="1508.847" x2="1508.847" y1="3775.7813" y2="3875.7813"/><polygon fill="#000000" points="1496.347,3844.5313,1508.847,3875.7813,1521.347,3844.5313,1508.847,3857.0313" style="stroke:#000000;stroke-width:3.125;"/><line style="stroke:#000000;stroke-width:3.125;" x1="1508.847" x2="1508.847" y1="4050.5859" y2="4113.0859"/><polygon fill="#000000" points="1496.347,4081.8359,1508.847,4113.0859,1521.347,4081.8359,1508.847,4094.3359" style="stroke:#000000;stroke-width:3.125;"/><!--SRC=[bLLTJnj757tthxYbBxlWklYBHY2t2ccgH4eVclQjHjQm7fiHozhohacjA9ALRf35HqDQ8qngKv0eXCXH7KA8LQKl-IayUcR_G-_ix18RKYdrWtTtziwPSyyzz-udp3BCQfv2Rf6LIpdRgPaqngfBPYJYCCUay0qhnY09v_Kcy6PJ_DFa6qtG4eb97NZlCV33hjZlynCNrzAu9Zeju8ztnEuJy3gR_D2DH6o7L9p8zFZuzud9oV5n7yhxfIKwfto_pNzhWzXznFV-1Esxko1M3yJVcznj853VStig3bSX4P_KirQPrCmIoOF6rvw9pjjH7DxjYzrDiNqQ1J-O60QrxPn9bwa9vuq6t1TxxNWKy3_X_oT1dBNbqQBH4WVr1uXVdJUPaLkaDT24k-VztD5d8f4o9i0SLh9Wx986Ot0_0i0AeFdfnOFq1g-xtjCD90DQFA73e5T_Jvq_F1NRco3sJyLkrzjgyTKcllzA1sU1Mg1P9HqH0QOhrAbMhAobXHk93NT8ZLRWUXJeKjcf1O-pdzz0adAFLN8eL5XnmV4V0QHA3HJc-JDVvvCMbYjufOcJ5vBcrWj8gnEfbVSHy86QDWMjHks0YvzS8aZEBflCqRw-UUVsjxT_k7at2alafqmSzJvV-JLaY7d7zIXugts-ry12yJ-wk9GCU2gyPEY5uQ10t-OnJ82tVI25zjRNnThBh5Mea2KA6PWdDfrAnUQdKdbgbF9KSog4cRI23BHbMh6nJb6OnxBZnP0N7J9P2w2A9J0MjR4lPs_T6ek23_VZT7fE1pXVmOAWpuxSy50jda8yzBNOSz-z6VJx-1eji-Lj7Glt9GnEwkAmaxM22c1u6ay9CDCm3Ua9dy5S6783GwQ6GjHhc9R4Hdx1cmcV-PpK2-l22f47epOSRJjbGoLhAf1rnDgI-k1DszjfeaZyhxuugijE7UqGB9ziaD6Tqlz33ay7w4fwG2q6hrvVCU-dznQOGnMVBqBRa0Bzh41CSnwh4Cfo7VZHEWwIbhVJKjx8KuSO2vSzg3J06_iUSuo5WCpK1rFbP-wWtvEx328XP4woZVpMraUw2xImesGTbYkP84XHiPrIUHWbWIYaAZDrc44SclyliB0nGzIgXRva1OOxFeoSLDPL8GfKAZuqZTIuk2BqHqWz4mHU27kblNtdA4VpipewAZMfAwIiPREYnQnYRWbzGefOyDqkJWqiEpB6H6T1pjwpEexgABmxkXQBn-Gay7EfvUHcWj9GhRpeQt49BHGgd5ygQ-6s-VD7i4nCbhz8U8ZiHmZkxxquqQUGAPLbwn3JxpWjpqZHAjcET4Huk9BblRJ_GzmHUKEx3j_XLLbNDh82l1O0AlTVcFZITqzBJCblcNZO5K-FvHU5jpRnam7UxwvOsS3m9xYk9dm3Qu6JgJTuzHORsULhtPc8xxH_0G00]--></g></svg>